<svg version="1.1" id="Layer_1" xmlns="http://www.w3.org/2000/svg" xmlns:xlink="http://www.w3.org/1999/xlink" x="0px" y="0px"
	 width="100%" viewBox="0 0 221 228" enable-background="new 0 0 221 228" xml:space="preserve">
<path fill="#000000" opacity="1.000000" stroke="none" 
	d="
M124.000000,229.000000 
	C82.666672,229.000000 41.833340,229.000000 1.000005,229.000000 
	C1.000004,153.000000 1.000004,77.000015 1.000002,1.000016 
	C74.666656,1.000010 148.333313,1.000010 221.999969,1.000005 
	C221.999985,76.999985 221.999985,152.999969 222.000000,228.999969 
	C189.500000,229.000000 157.000000,229.000000 124.000000,229.000000 
M90.061890,31.319031 
	C89.729073,30.827145 89.396255,30.335257 88.744110,29.249187 
	C78.110359,20.704067 67.406769,12.260207 54.777416,4.923354 
	C54.302197,8.908465 54.352425,11.923443 53.540424,14.684884 
	C50.485336,25.074654 47.600662,35.551479 43.795624,45.673717 
	C39.735409,56.474792 34.469086,66.816559 30.172039,77.536316 
	C26.442474,86.840393 23.331430,96.392410 19.482578,106.088821 
	C19.354532,106.403549 19.226486,106.718285 19.093575,107.637459 
	C19.044319,108.036652 18.995064,108.435837 18.434977,109.076500 
	C18.299625,109.413300 18.164274,109.750092 18.014509,110.650169 
	C17.979250,111.023445 17.943989,111.396713 17.388100,112.024033 
	C17.264778,112.371719 17.141455,112.719406 17.062853,113.740814 
	C17.005808,114.412003 16.948763,115.083199 16.324469,116.111008 
	C16.251560,116.749588 16.178652,117.388168 16.076033,118.632790 
	C16.002192,119.029610 15.928350,119.426437 15.291998,120.265816 
	C15.257341,121.195557 15.222685,122.125290 15.149003,123.827896 
	C15.095018,124.858078 15.041035,125.888252 14.567491,127.146317 
	C14.285188,127.358002 14.165765,127.638901 14.230284,128.685074 
	C14.252917,129.148376 14.275551,129.611694 14.264906,130.482117 
	C14.264906,130.482117 14.330931,130.885193 14.238348,131.720139 
	C14.230214,132.839233 14.222080,133.958313 14.085727,135.904831 
	C14.121500,137.578049 14.157273,139.251266 14.149346,141.832840 
	C14.155431,144.554749 14.161516,147.276657 14.082337,150.604950 
	C14.377586,151.102982 14.672834,151.600998 15.064917,152.800964 
	C15.084047,153.508942 15.103177,154.216919 15.066023,155.544586 
	C15.355806,156.059830 15.645589,156.575058 16.028172,157.704651 
	C16.039047,158.118423 16.049921,158.532196 15.952823,159.580627 
	C16.280605,160.072083 16.608391,160.563553 17.000418,161.025986 
	C17.000418,161.025986 16.931150,161.032013 16.959976,161.792191 
	C17.934980,164.237381 18.909985,166.682587 20.129190,169.613892 
	C20.404526,170.076370 20.679861,170.538849 21.016712,171.596069 
	C21.328997,172.073929 21.641279,172.551788 21.996054,173.006668 
	C21.996054,173.006668 21.951427,173.035980 22.016474,173.740601 
	C23.323137,175.837372 24.629801,177.934143 25.962507,180.042496 
	C25.962507,180.042496 25.942680,180.063492 25.946350,180.725922 
	C26.939508,181.832657 27.932669,182.939392 28.986200,184.014572 
	C28.986200,184.014572 28.920946,184.052628 28.929680,184.766342 
	C31.247561,187.528412 33.565445,190.290466 35.893524,193.114700 
	C35.893524,193.114700 35.955421,193.102982 36.259762,193.690735 
	C38.144363,195.198715 40.028969,196.706711 42.271034,198.530930 
	C42.528576,198.723434 42.810658,198.868103 43.397736,199.553879 
	C44.620102,200.306595 45.842468,201.059311 47.631477,202.187149 
	C51.322266,204.984070 55.013058,207.781006 58.703846,210.577927 
	C59.068874,210.217896 59.433899,209.857864 59.798927,209.497818 
	C59.598415,208.432587 59.578495,207.291626 59.168663,206.314148 
	C56.052670,198.882492 53.335831,191.233139 49.600639,184.121124 
	C39.390762,164.680878 36.570541,144.541824 44.311333,123.852348 
	C48.217186,113.412857 53.983593,103.658142 59.104240,93.694283 
	C60.099842,91.757027 61.999401,90.284340 63.481998,88.597374 
	C59.759953,101.591660 53.750053,113.677681 54.804054,127.643723 
	C55.859737,127.427376 56.304367,127.472595 56.475571,127.277664 
	C57.231670,126.416748 57.992550,125.539406 58.602074,124.573570 
	C64.838997,114.690796 71.892555,105.217018 81.758469,98.990639 
	C94.880730,90.709167 108.704773,83.496277 122.486404,76.321983 
	C129.038620,72.911110 129.554504,72.391991 124.934517,66.514366 
	C116.247673,55.462818 107.503883,44.470913 95.896942,35.499371 
	C95.613319,35.320953 95.329697,35.142532 95.055923,34.938633 
	C95.055923,34.938633 95.039764,34.916603 94.749855,34.355873 
	C93.832726,33.902935 92.915604,33.450001 91.999390,33.000610 
	C91.999390,33.000610 92.003296,33.001186 91.658852,32.530453 
	C91.135452,32.307533 90.612061,32.084618 90.063713,31.929657 
	C90.063713,31.929657 90.134071,31.912611 90.061890,31.319031 
M69.992638,206.127106 
	C69.875366,192.622269 69.749916,179.185791 73.912994,166.021332 
	C78.785530,150.613464 86.976326,137.820816 99.977379,127.967903 
	C110.983620,119.626755 123.629440,115.136894 136.553284,111.297874 
	C142.887375,109.416336 149.565384,108.692589 156.087753,107.444847 
	C155.043045,109.019440 153.733719,109.509758 152.429993,110.014519 
	C139.890793,114.869370 127.819702,120.689041 117.801361,129.799835 
	C105.136017,141.317825 96.038918,155.273163 91.561607,171.942444 
	C87.732903,186.196915 87.758446,200.503555 92.057991,214.664841 
	C94.149269,221.552841 96.389938,223.037964 103.454094,222.973068 
	C118.600006,222.833954 133.485718,220.782547 147.845154,215.904175 
	C166.187881,209.672531 182.167343,199.924255 193.103104,183.370193 
	C205.596573,164.458145 211.555222,143.306976 211.755905,120.926979 
	C211.910812,103.651978 210.230667,86.339058 208.867203,69.082443 
	C208.320038,62.157375 206.673462,55.282581 205.083572,48.488739 
	C203.928482,43.552883 201.730057,42.998531 198.059814,46.474754 
	C186.895447,57.048950 172.902771,62.432117 159.017944,68.038109 
	C143.071426,74.476509 126.722038,80.083878 111.291725,87.583206 
	C98.052605,94.017578 84.926765,101.213463 75.255531,113.123306 
	C68.793991,121.080521 63.808414,129.677917 60.966068,139.531616 
	C57.619713,151.132599 55.727097,162.938080 58.083782,174.887878 
	C60.371723,186.489075 63.442337,197.937027 66.247169,209.433258 
	C66.511002,210.514648 67.332993,211.459839 67.895844,212.468262 
	C68.404900,212.192749 68.913963,211.917252 69.423027,211.641739 
	C69.613686,210.102005 69.804352,208.562286 69.992638,206.127106 
z"/>
<path fill="#A4D925" opacity="1.000000" stroke="none" 
	d="
M69.993820,206.574829 
	C69.804352,208.562286 69.613686,210.102005 69.423027,211.641739 
	C68.913963,211.917252 68.404900,212.192749 67.895844,212.468262 
	C67.332993,211.459839 66.511002,210.514648 66.247169,209.433258 
	C63.442337,197.937027 60.371723,186.489075 58.083782,174.887878 
	C55.727097,162.938080 57.619713,151.132599 60.966068,139.531616 
	C63.808414,129.677917 68.793991,121.080521 75.255531,113.123306 
	C84.926765,101.213463 98.052605,94.017578 111.291725,87.583206 
	C126.722038,80.083878 143.071426,74.476509 159.017944,68.038109 
	C172.902771,62.432117 186.895447,57.048950 198.059814,46.474754 
	C201.730057,42.998531 203.928482,43.552883 205.083572,48.488739 
	C206.673462,55.282581 208.320038,62.157375 208.867203,69.082443 
	C210.230667,86.339058 211.910812,103.651978 211.755905,120.926979 
	C211.555222,143.306976 205.596573,164.458145 193.103104,183.370193 
	C182.167343,199.924255 166.187881,209.672531 147.845154,215.904175 
	C133.485718,220.782547 118.600006,222.833954 103.454094,222.973068 
	C96.389938,223.037964 94.149269,221.552841 92.057991,214.664841 
	C87.758446,200.503555 87.732903,186.196915 91.561607,171.942444 
	C96.038918,155.273163 105.136017,141.317825 117.801361,129.799835 
	C127.819702,120.689041 139.890793,114.869370 152.429993,110.014519 
	C153.733719,109.509758 155.043045,109.019440 156.087753,107.444847 
	C149.565384,108.692589 142.887375,109.416336 136.553284,111.297874 
	C123.629440,115.136894 110.983620,119.626755 99.977379,127.967903 
	C86.976326,137.820816 78.785530,150.613464 73.912994,166.021332 
	C69.749916,179.185791 69.875366,192.622269 69.993820,206.574829 
z"/>
<path fill="#086427" opacity="1.000000" stroke="none" 
	d="
M15.122308,154.924896 
	C15.103177,154.216919 15.084047,153.508942 14.967828,152.169189 
	C14.636360,151.024475 14.401981,150.511520 14.167602,149.998566 
	C14.161516,147.276657 14.155431,144.554749 14.322968,141.076782 
	C14.402376,138.572952 14.308162,136.825180 14.213947,135.077408 
	C14.222080,133.958313 14.230214,132.839233 14.325492,131.205368 
	C14.457441,130.471069 14.419291,130.265869 14.298184,130.074997 
	C14.275551,129.611694 14.252917,129.148376 14.365847,128.171555 
	C14.690900,127.429634 14.852780,127.183098 14.987051,126.918434 
	C15.041035,125.888252 15.095018,124.858078 15.421303,123.303421 
	C15.747238,121.793724 15.800873,120.808487 15.854509,119.823257 
	C15.928350,119.426437 16.002192,119.029610 16.246986,118.068954 
	C16.575869,116.921547 16.733795,116.337967 16.891720,115.754387 
	C16.948763,115.083199 17.005808,114.412003 17.207317,113.200203 
	C17.537430,112.363052 17.723080,112.066521 17.908730,111.769989 
	C17.943989,111.396713 17.979250,111.023445 18.192606,110.172592 
	C18.562405,109.408356 18.754107,109.121689 18.945808,108.835030 
	C18.995064,108.435837 19.044319,108.036652 19.256866,107.149689 
	C19.628626,106.407150 19.804251,106.131462 19.947033,105.834846 
	C23.331430,96.392410 26.442474,86.840393 30.172039,77.536316 
	C34.469086,66.816559 39.735409,56.474792 43.795624,45.673717 
	C47.600662,35.551479 50.485336,25.074654 53.540424,14.684884 
	C54.352425,11.923443 54.302197,8.908465 54.777416,4.923354 
	C67.406769,12.260207 78.110359,20.704067 88.957558,29.841763 
	C89.492027,30.927095 89.813049,31.419853 90.134071,31.912609 
	C90.134071,31.912611 90.063713,31.929657 90.274155,32.100143 
	C90.990822,32.514145 91.497063,32.757664 92.003296,33.001186 
	C92.003296,33.001186 91.999390,33.000610 92.130203,33.295952 
	C93.187263,34.033062 94.113510,34.474834 95.039764,34.916603 
	C95.039764,34.916603 95.055923,34.938633 95.208969,35.140179 
	C95.586647,35.584969 95.841957,35.790024 96.127945,35.956886 
	C107.503883,44.470913 116.247673,55.462818 124.934517,66.514366 
	C129.554504,72.391991 129.038620,72.911110 122.486404,76.321983 
	C108.704773,83.496277 94.880730,90.709167 81.758469,98.990639 
	C71.892555,105.217018 64.838997,114.690796 58.602074,124.573570 
	C57.992550,125.539406 57.231670,126.416748 56.475571,127.277664 
	C56.304367,127.472595 55.859737,127.427376 54.804054,127.643723 
	C53.750053,113.677681 59.759953,101.591660 63.481998,88.597374 
	C61.999401,90.284340 60.099842,91.757027 59.104240,93.694283 
	C53.983593,103.658142 48.217186,113.412857 44.311333,123.852348 
	C36.570541,144.541824 39.390762,164.680878 49.600639,184.121124 
	C53.335831,191.233139 56.052670,198.882492 59.168663,206.314148 
	C59.578495,207.291626 59.598415,208.432587 59.798927,209.497818 
	C59.433899,209.857864 59.068874,210.217896 58.703846,210.577927 
	C55.013058,207.781006 51.322266,204.984070 47.231834,201.693329 
	C45.593887,200.454651 44.355583,199.709793 43.117279,198.964935 
	C42.810658,198.868103 42.528576,198.723434 42.028656,198.018661 
	C39.842663,196.038589 37.899040,194.570786 35.955421,193.102982 
	C35.955421,193.102982 35.893524,193.114700 35.879135,192.714386 
	C35.437988,187.973511 32.606682,185.653992 28.920946,184.052628 
	C28.920946,184.052628 28.986200,184.014572 28.945911,183.677155 
	C27.917973,182.247650 26.930325,181.155563 25.942680,180.063492 
	C25.942680,180.063492 25.962507,180.042496 25.940441,179.673615 
	C24.596060,177.215164 23.273745,175.125565 21.951427,173.035980 
	C21.951427,173.035980 21.996054,173.006668 21.914818,172.736481 
	C21.540787,171.977982 21.247992,171.489655 20.955196,171.001328 
	C20.679861,170.538849 20.404526,170.076370 20.164536,169.101624 
	C19.110304,166.070236 18.020727,163.551117 16.931150,161.032013 
	C16.931150,161.032013 17.000418,161.025986 16.911688,160.757462 
	C16.568905,159.974609 16.314852,159.460297 16.060799,158.945969 
	C16.049921,158.532196 16.039047,158.118423 16.109764,157.194366 
	C15.835006,156.097672 15.478657,155.511292 15.122308,154.924896 
z"/>
<path fill="#145421" opacity="1.000000" stroke="none" 
	d="
M28.925312,184.409485 
	C32.606682,185.653992 35.437988,187.973511 35.874031,192.683304 
	C33.565445,190.290466 31.247561,187.528412 28.925312,184.409485 
z"/>
<path fill="#145421" opacity="1.000000" stroke="none" 
	d="
M36.107590,193.396851 
	C37.899040,194.570786 39.842663,196.038589 41.849930,197.860535 
	C40.028969,196.706711 38.144363,195.198715 36.107590,193.396851 
z"/>
<path fill="#145421" opacity="1.000000" stroke="none" 
	d="
M16.945564,161.412109 
	C18.020727,163.551117 19.110304,166.070236 20.042435,168.858551 
	C18.909985,166.682587 17.934980,164.237381 16.945564,161.412109 
z"/>
<path fill="#145421" opacity="1.000000" stroke="none" 
	d="
M21.983952,173.388290 
	C23.273745,175.125565 24.596060,177.215164 25.927420,179.667831 
	C24.629801,177.934143 23.323137,175.837372 21.983952,173.388290 
z"/>
<path fill="#145421" opacity="1.000000" stroke="none" 
	d="
M43.257507,199.259399 
	C44.355583,199.709793 45.593887,200.454651 46.948513,201.505783 
	C45.842468,201.059311 44.620102,200.306595 43.257507,199.259399 
z"/>
<path fill="#145421" opacity="1.000000" stroke="none" 
	d="
M25.944515,180.394714 
	C26.930325,181.155563 27.917973,182.247650 28.915724,183.692932 
	C27.932669,182.939392 26.939508,181.832657 25.944515,180.394714 
z"/>
<path fill="#145421" opacity="1.000000" stroke="none" 
	d="
M15.573254,120.044540 
	C15.800873,120.808487 15.747238,121.793724 15.440816,122.916992 
	C15.222685,122.125290 15.257341,121.195557 15.573254,120.044540 
z"/>
<path fill="#145421" opacity="1.000000" stroke="none" 
	d="
M14.149837,135.491119 
	C14.308162,136.825180 14.402376,138.572952 14.344818,140.622604 
	C14.157273,139.251266 14.121500,137.578049 14.149837,135.491119 
z"/>
<path fill="#115222" opacity="1.000000" stroke="none" 
	d="
M94.894806,34.636238 
	C94.113510,34.474834 93.187263,34.033062 92.129745,33.294178 
	C92.915604,33.450001 93.832726,33.902935 94.894806,34.636238 
z"/>
<path fill="#145421" opacity="1.000000" stroke="none" 
	d="
M15.094166,155.234741 
	C15.478657,155.511292 15.835006,156.097672 16.063364,156.887177 
	C15.645589,156.575058 15.355806,156.059830 15.094166,155.234741 
z"/>
<path fill="#145421" opacity="1.000000" stroke="none" 
	d="
M16.608093,115.932693 
	C16.733795,116.337967 16.575869,116.921547 16.261843,117.765938 
	C16.178652,117.388168 16.251560,116.749588 16.608093,115.932693 
z"/>
<path fill="#145421" opacity="1.000000" stroke="none" 
	d="
M14.124969,150.301758 
	C14.401981,150.511520 14.636360,151.024475 14.919411,151.818237 
	C14.672834,151.600998 14.377586,151.102982 14.124969,150.301758 
z"/>
<path fill="#145421" opacity="1.000000" stroke="none" 
	d="
M16.006811,159.263306 
	C16.314852,159.460297 16.568905,159.974609 16.879566,160.771973 
	C16.608391,160.563553 16.280605,160.072083 16.006811,159.263306 
z"/>
<path fill="#145421" opacity="1.000000" stroke="none" 
	d="
M20.985954,171.298706 
	C21.247992,171.489655 21.540787,171.977982 21.893570,172.747986 
	C21.641279,172.551788 21.328997,172.073929 20.985954,171.298706 
z"/>
<path fill="#115222" opacity="1.000000" stroke="none" 
	d="
M91.831070,32.765820 
	C91.497063,32.757664 90.990822,32.514145 90.286621,32.066162 
	C90.612061,32.084618 91.135452,32.307533 91.831070,32.765820 
z"/>
<path fill="#115222" opacity="1.000000" stroke="none" 
	d="
M90.097977,31.615820 
	C89.813049,31.419853 89.492027,30.927095 89.117226,30.138853 
	C89.396255,30.335257 89.729073,30.827145 90.097977,31.615820 
z"/>
<path fill="#145421" opacity="1.000000" stroke="none" 
	d="
M17.648415,111.897011 
	C17.723080,112.066521 17.537430,112.363052 17.184956,112.863342 
	C17.141455,112.719406 17.264778,112.371719 17.648415,111.897011 
z"/>
<path fill="#145421" opacity="1.000000" stroke="none" 
	d="
M14.777271,127.032379 
	C14.852780,127.183098 14.690900,127.429634 14.355316,127.823532 
	C14.165765,127.638901 14.285188,127.358002 14.777271,127.032379 
z"/>
<path fill="#145421" opacity="1.000000" stroke="none" 
	d="
M14.281546,130.278564 
	C14.419291,130.265869 14.457441,130.471069 14.371783,130.787903 
	C14.330931,130.885193 14.264906,130.482117 14.281546,130.278564 
z"/>
<path fill="#145421" opacity="1.000000" stroke="none" 
	d="
M18.690392,108.955765 
	C18.754107,109.121689 18.562405,109.408356 18.199814,109.890953 
	C18.164274,109.750092 18.299625,109.413300 18.690392,108.955765 
z"/>
<path fill="#145421" opacity="1.000000" stroke="none" 
	d="
M19.714806,105.961838 
	C19.804251,106.131462 19.628626,106.407150 19.259298,106.847473 
	C19.226486,106.718285 19.354532,106.403549 19.714806,105.961838 
z"/>
<path fill="#115222" opacity="1.000000" stroke="none" 
	d="
M96.012444,35.728127 
	C95.841957,35.790024 95.586647,35.584969 95.204041,35.152916 
	C95.329697,35.142532 95.613319,35.320953 96.012444,35.728127 
z"/>
</svg>